<svg xmlns="http://www.w3.org/2000/svg" viewBox="0 0 145.83 145.83"><defs><style>.cls-1{fill:#2079ff;}.cls-2{fill:#fcfdff;}</style></defs><g id="Layer_2" data-name="Layer 2"><g id="Layer_1-2" data-name="Layer 1"><rect class="cls-1" width="145.83" height="145.83" rx="26.6"/><path class="cls-2" d="M88.9,57a11.86,11.86,0,0,0-2.79-7.72A1,1,0,0,1,86,47.89c2.32-3.69,4.64-7.38,6.89-11.1.49-.81,1-.74,1.67-.46a18.49,18.49,0,0,1,8.07,5.81,1.9,1.9,0,0,0,2.29.73c4-1,8-1.88,11.94-2.8,1.63-.37,2.12,0,2.1,1.71,0,2.2-.15,4.4-.22,6.6a1.5,1.5,0,0,1-1.4,1.59c-3,.68-6,1.47-9,2.11-1,.21-1.18.58-1,1.58a20.46,20.46,0,0,1,.23,6c-.16,1,0,1.54,1.27,1.17,2.52-.7,5.11-1.18,7.66-1.8,1.33-.32,1.91.23,1.89,1.5,0,2.31-.17,4.61-.21,6.92,0,1.22-.87,1.43-1.76,1.64L104.89,71.7a2.55,2.55,0,0,0-1.71,1c-4.52,6.6-10.94,10.57-18.31,13.23-4.71,1.69-9.62,2.57-14.46,3.74-1,.24-1.59.51-1.61,1.78-.08,5.2-.31,10.39-.49,15.58-.07,2.19-.72,3-2.82,3.53q-9.48,2.23-19,4.44c-.44.11-1,.49-1.31,0a1.45,1.45,0,0,1,.16-1.62L48.68,108Q58.36,92.46,68,76.86a3,3,0,0,1,2.06-1.47c4.64-1,9.11-2.5,12.89-5.53S88.94,62.89,88.9,57Z"/><path class="cls-2" d="M42.89,101.45c0-4.55,0-9.21,0-13.86,0-1.63.08-3.26.22-4.88.11-1.15-.25-1.25-1.29-1-4.23,1.05-8.47,2-12.71,3-1.83.42-2.3,0-2.26-1.83,0-2,.18-4.09.2-6.14a1.71,1.71,0,0,1,1.58-1.93c4.45-1,8.88-2.08,13.32-3.09,1-.23,1.59-.58,1.55-1.82a54.61,54.61,0,0,1,.22-6.13c.1-1.22-.29-1.23-1.3-1-4.23,1-8.47,2-12.71,3-1.81.41-2.28,0-2.23-1.86s.19-4.09.2-6.13a1.73,1.73,0,0,1,1.6-1.93c4.4-1,8.77-2.08,13.18-3a1.75,1.75,0,0,0,1.67-2.06c0-3.41.17-6.82.29-10.23.06-1.81.78-2.78,2.47-3.16C56,35.26,65,32.78,74.2,31.17a47.63,47.63,0,0,1,11-.43c1.07.06,1.52.27.78,1.43-2.6,4.07-5.13,8.18-7.65,12.3a1.76,1.76,0,0,1-1.74,1,21.09,21.09,0,0,0-6.2.94A7.81,7.81,0,0,0,64.57,54c0,3.84,0,7.67,0,11.51a3.4,3.4,0,0,1-.47,1.93q-10.58,17-21.11,34C42.9,101.46,42.82,101.52,42.89,101.45Z"/></g></g></svg>