<svg xmlns="http://www.w3.org/2000/svg" viewBox="0 0 147.84 147.84"><defs><style>.cls-1{stroke:#000;stroke-miterlimit:10;stroke-width:2px;}</style></defs><g id="Layer_2" data-name="Layer 2"><g id="Layer_1-2" data-name="Layer 1"><path class="cls-1" d="M120.24,1H27.6A26.6,26.6,0,0,0,1,27.6v92.64a26.6,26.6,0,0,0,26.6,26.6h92.64a26.6,26.6,0,0,0,26.6-26.6V27.6A26.6,26.6,0,0,0,120.24,1ZM43.87,102.48l0,0c0-4.55,0-9.21,0-13.86,0-1.63.08-3.26.22-4.88.11-1.15-.25-1.25-1.29-1-4.23,1-8.47,2-12.71,3-1.83.42-2.3,0-2.26-1.83,0-2,.19-4.09.2-6.14a1.72,1.72,0,0,1,1.58-1.93c4.45-1,8.88-2.08,13.33-3.09,1-.23,1.58-.58,1.55-1.81a54.78,54.78,0,0,1,.21-6.14c.11-1.22-.29-1.23-1.3-1-4.23,1-8.47,2-12.71,3-1.81.41-2.27,0-2.23-1.85.05-2.05.19-4.09.2-6.14a1.74,1.74,0,0,1,1.6-1.93c4.4-1,8.78-2.08,13.18-3,1.25-.27,1.68-.76,1.68-2.06,0-3.41.16-6.82.28-10.23.06-1.81.78-2.78,2.48-3.16C57,36.26,66,33.78,75.21,32.17a48.11,48.11,0,0,1,11-.43c1.07.06,1.53.27.78,1.43-2.6,4.07-5.13,8.18-7.65,12.3a1.76,1.76,0,0,1-1.74,1,21.09,21.09,0,0,0-6.2.94A7.82,7.82,0,0,0,65.57,55c0,3.84,0,7.67,0,11.51a3.44,3.44,0,0,1-.46,1.94q-10.57,17-21.11,34A.59.59,0,0,1,43.87,102.48Zm75.9-53.09a1.51,1.51,0,0,1-1.4,1.58c-3,.68-6,1.47-9,2.11-1,.21-1.18.58-1,1.58a20.12,20.12,0,0,1,.23,6c-.15,1,0,1.54,1.27,1.18,2.53-.71,5.11-1.18,7.66-1.81,1.33-.32,1.92.23,1.89,1.5,0,2.31-.17,4.62-.21,6.92,0,1.22-.87,1.43-1.76,1.64l-11.49,2.67a2.49,2.49,0,0,0-1.71,1C99.66,80.27,93.24,84.25,85.87,86.9c-4.7,1.69-9.62,2.57-14.46,3.74-1,.25-1.59.51-1.6,1.78-.08,5.2-.32,10.39-.5,15.58-.07,2.19-.72,3-2.81,3.53q-9.49,2.23-19,4.44c-.44.11-1,.49-1.31,0a1.44,1.44,0,0,1,.17-1.62Q48,111.71,49.68,109,59.36,93.46,69,77.87a3,3,0,0,1,2.06-1.48c4.64-1,9.11-2.49,12.89-5.53s6-7,5.93-12.88a11.8,11.8,0,0,0-2.79-7.72A1,1,0,0,1,87,48.89c2.32-3.69,4.64-7.37,6.89-11.1.49-.81,1-.74,1.67-.46a18.43,18.43,0,0,1,8.07,5.82,1.92,1.92,0,0,0,2.29.73c4-1,8-1.89,11.94-2.8,1.64-.38,2.12,0,2.1,1.7C120,45,119.83,47.18,119.77,49.39Z"/></g></g></svg>